<?xml version="1.0" encoding="iso-8859-1"?>
<!-- Generator: Adobe Illustrator 19.0.0, SVG Export Plug-In . SVG Version: 6.00 Build 0)  -->
<svg version="1.1" id="Capa_1" xmlns="http://www.w3.org/2000/svg" xmlns:xlink="http://www.w3.org/1999/xlink" x="0px" y="0px"
	 viewBox="0 0 480 480" style="enable-background:new 0 0 480 480;" xml:space="preserve">
<g>
	<g>
		<path d="M441.2,148.161l-83.144-83.152c-44.508-44.774-114.345-52.125-167.2-17.6C187.839,37.288,178.561,30.328,168,30.265H24
			c-13.255,0-24,10.745-24,24v128c0,13.255,10.745,24,24,24h24v200c0,2.122,0.844,4.156,2.344,5.656l24,24l16,16
			c3.124,3.123,8.188,3.123,11.312,0l40-40c1.5-1.5,2.344-3.534,2.344-5.656v-8c0-2.122-0.844-4.156-2.344-5.656l-18.344-18.344
			l18.344-18.344c1.5-1.5,2.344-3.534,2.344-5.656v-24c0-2.122-0.844-4.156-2.344-5.656L120,298.953v-17.376l21.656-21.656
			c1.5-1.5,2.344-3.534,2.344-5.656v-20.688l109.888,109.896c51.73,51.725,135.596,51.721,187.321-0.009
			c24.835-24.838,38.789-58.523,38.791-93.647v-8C480.096,206.669,466.124,172.943,441.2,148.161z M128,250.953l-21.656,21.656
			c-1.5,1.5-2.344,3.534-2.344,5.656v24c0,2.122,0.844,4.156,2.344,5.656L128,329.577v17.376l-21.656,21.656
			c-3.123,3.124-3.123,8.188,0,11.312L128,401.577v1.376l-32,32l-8-8V222.265c0-4.418-3.582-8-8-8s-8,3.582-8,8v188.688l-8-8
			V206.265h64V250.953z M136,190.265H24c-4.418,0-8-3.582-8-8v-128c0-4.418,3.582-8,8-8h144c4.418,0,8,3.582,8,8v40.696
			l-16.296-3.624C158.229,74.913,144.49,62.314,128,62.265H64c-17.673,0-32,14.327-32,32s14.327,32,32,32h64
			c12.662-0.019,24.123-7.502,29.232-19.088L176,111.345v70.92c0,4.418-3.582,8-8,8H136z M133.978,102.009
			c0.095,0.023,0.19,0.044,0.286,0.064h0l6.704,1.488c-2.992,4.191-7.818,6.686-12.968,6.704H64c-8.837,0-16-7.163-16-16
			s7.163-16,16-16h64c6.199,0.021,11.829,3.621,14.448,9.24l-4.712-1.048c-4.295-1.038-8.617,1.602-9.655,5.897
			C127.043,96.648,129.683,100.971,133.978,102.009z M464,249.817c-0.003,64.317-52.145,116.453-116.462,116.45
			c-30.883-0.002-60.5-12.27-82.338-34.106L144,210.953v-4.688h24c13.255,0,24-10.745,24-24v-44.448
			c4.843,2.879,10.366,4.415,16,4.448c17.673,0,32-14.327,32-32s-14.327-32-32-32c-5.634,0.033-11.157,1.569-16,4.448V66.265
			c46.739-36.138,113.071-31.831,154.744,10.048l83.144,83.16c21.914,21.789,34.197,51.441,34.112,82.344V249.817z M209.728,102.457
			h0.008l-13.464-2.992c5.971-6.514,16.092-6.954,22.606-0.983c6.514,5.971,6.954,16.092,0.983,22.606
			c-5.971,6.514-16.092,6.954-22.606,0.983c-2.076-1.903-3.612-4.319-4.455-7.006l13.44,2.984c0.577,0.136,1.167,0.208,1.76,0.216
			c4.418-0.008,7.994-3.596,7.986-8.014C215.979,106.509,213.38,103.271,209.728,102.457z"/>
	</g>
</g>
<g>
	<g>
		<path d="M405.656,216.609l-88-88c-3.178-3.07-8.242-2.982-11.312,0.196c-2.994,3.1-2.994,8.015,0,11.116l38.344,38.344
			L276,246.953l-38.344-38.344c-3.178-3.07-8.242-2.982-11.312,0.196c-2.994,3.1-2.994,8.015,0,11.116l88,88
			c3.178,3.07,8.242,2.982,11.312-0.196c2.995-3.1,2.995-8.016,0-11.116l-38.344-38.344L356,189.577l38.344,38.344
			c3.178,3.07,8.242,2.982,11.312-0.196C408.651,224.624,408.651,219.709,405.656,216.609z"/>
	</g>
</g>
<g>
</g>
<g>
</g>
<g>
</g>
<g>
</g>
<g>
</g>
<g>
</g>
<g>
</g>
<g>
</g>
<g>
</g>
<g>
</g>
<g>
</g>
<g>
</g>
<g>
</g>
<g>
</g>
<g>
</g>
</svg>
